<?xml version="1.0" encoding="UTF-8"?>
<!DOCTYPE svg PUBLIC "-//W3C//DTD SVG 1.1//EN" "http://www.w3.org/Graphics/SVG/1.1/DTD/svg11.dtd">
<svg xmlns="http://www.w3.org/2000/svg" version="1.1" width="300px" height="66px" style="shape-rendering:geometricPrecision; text-rendering:geometricPrecision; image-rendering:optimizeQuality; fill-rule:evenodd; clip-rule:evenodd" xmlns:xlink="http://www.w3.org/1999/xlink">
<g><path style="opacity:0.999" fill="#e4e6e8" d="M 40.5,6.5 C 40.3335,16.8387 40.5002,27.172 41,37.5C 41.5,41.3333 43.6667,43.5 47.5,44C 52.1548,44.4992 56.8215,44.6658 61.5,44.5C 61.5,45.5 61.5,46.5 61.5,47.5C 61.0831,48.1239 60.4164,48.4573 59.5,48.5C 54.8633,47.7801 50.1966,47.2801 45.5,47C 41.2783,45.9738 37.7783,43.8071 35,40.5C 33.4003,29.239 33.0669,17.9056 34,6.5C 36.2735,5.1888 38.4402,5.1888 40.5,6.5 Z"/></g>
<g><path style="opacity:1" fill="#e3e6e8" d="M 132.5,6.5 C 133.369,8.71702 133.702,11.0504 133.5,13.5C 133.158,14.3382 132.492,14.6716 131.5,14.5C 130.5,14.5 129.5,14.5 128.5,14.5C 127.833,14.5 127.5,14.1667 127.5,13.5C 127.298,11.0504 127.631,8.71702 128.5,6.5C 129.833,5.16667 131.167,5.16667 132.5,6.5 Z"/></g>
<g><path style="opacity:1" fill="#f4f6f7" d="M 168.5,6.5 C 168.173,11.544 168.506,16.544 169.5,21.5C 174.461,20.5738 179.461,20.5738 184.5,21.5C 187.323,22.9923 188.99,25.3257 189.5,28.5C 189.5,34.5 189.5,40.5 189.5,46.5C 187.5,46.5 185.5,46.5 183.5,46.5C 183.666,40.1579 183.5,33.8246 183,27.5C 182.617,26.944 182.117,26.6107 181.5,26.5C 181.586,25.5041 181.252,24.6708 180.5,24C 178.863,23.3988 177.197,22.8988 175.5,22.5C 173.962,22.4534 172.962,23.1201 172.5,24.5C 172.5,25.1667 172.167,25.5 171.5,25.5C 170.21,26.0577 169.377,27.0577 169,28.5C 168.501,34.4908 168.334,40.4908 168.5,46.5C 166.5,46.5 164.5,46.5 162.5,46.5C 162.5,33.1667 162.5,19.8333 162.5,6.5C 164.5,5.16667 166.5,5.16667 168.5,6.5 Z"/></g>
<g><path style="opacity:1" fill="#99a0a9" d="M 128.5,6.5 C 127.631,8.71702 127.298,11.0504 127.5,13.5C 126.12,13.0377 125.453,12.0377 125.5,10.5C 125.561,8.34717 126.561,7.01384 128.5,6.5 Z"/></g>
<g><path style="opacity:1" fill="#8a8e97" d="M 132.5,6.5 C 134.439,7.01384 135.439,8.34717 135.5,10.5C 135.547,12.0377 134.88,13.0377 133.5,13.5C 133.702,11.0504 133.369,8.71702 132.5,6.5 Z"/></g>
<g><path style="opacity:0.349" fill="#72767d" d="M 168.5,6.5 C 169.485,10.6344 169.818,14.9677 169.5,19.5C 173.514,19.3345 177.514,19.5012 181.5,20C 182.737,20.2321 183.737,20.7321 184.5,21.5C 179.461,20.5738 174.461,20.5738 169.5,21.5C 168.506,16.544 168.173,11.544 168.5,6.5 Z"/></g>
<g><path style="opacity:0.039" fill="#111920" d="M 128.5,14.5 C 129.5,14.5 130.5,14.5 131.5,14.5C 132.953,15.8486 133.953,17.5153 134.5,19.5C 132.167,19.5 129.833,19.5 127.5,19.5C 129.401,18.065 129.734,16.3983 128.5,14.5 Z"/></g>
<g><path style="opacity:1" fill="#eaecee" d="M 94.5,20.5 C 96.5,20.5 98.5,20.5 100.5,20.5C 100.178,26.358 100.511,32.0247 101.5,37.5C 101.369,40.3667 102.703,42.0334 105.5,42.5C 107.5,42.5 109.5,42.5 111.5,42.5C 113.411,42.4257 114.578,41.4257 115,39.5C 115.5,33.1754 115.666,26.8421 115.5,20.5C 117.5,20.5 119.5,20.5 121.5,20.5C 121.5,25.5 121.5,30.5 121.5,35.5C 121.483,37.5648 121.15,39.5648 120.5,41.5C 117.821,45.9589 113.821,47.9589 108.5,47.5C 102.507,47.9671 98.174,45.6337 95.5,40.5C 94.6708,35.547 94.3375,30.547 94.5,25.5C 94.5,23.8333 94.5,22.1667 94.5,20.5 Z"/></g>
<g><path style="opacity:1" fill="#d9dbdf" d="M 156.5,20.5 C 157.626,21.8583 157.626,23.1916 156.5,24.5C 153.038,22.6088 149.372,22.1088 145.5,23C 142.833,25 142.833,27 145.5,29C 149.947,30.3896 153.947,32.5562 157.5,35.5C 159.057,39.6072 158.391,43.2739 155.5,46.5C 150.302,48.7106 144.969,49.0439 139.5,47.5C 137.825,45.544 138.158,44.2107 140.5,43.5C 143.64,44.6408 146.973,44.8075 150.5,44C 153.668,39.8385 152.668,37.3385 147.5,36.5C 145.181,36.0075 143.181,35.0075 141.5,33.5C 137.967,29.7667 137.633,25.7667 140.5,21.5C 145.632,17.9298 150.965,17.5965 156.5,20.5 Z"/></g>
<g><path style="opacity:1" fill="#dfe2e4" d="M 222.5,29.5 C 222.448,33.1981 222.114,36.8648 221.5,40.5C 220.094,40.9731 219.427,41.9731 219.5,43.5C 213.779,47.7436 207.446,48.5769 200.5,46C 198.676,45.34 197.343,44.1733 196.5,42.5C 193.905,38.1174 193.238,33.4507 194.5,28.5C 196.654,22.162 201.154,19.162 208,19.5C 215.438,19.1113 220.272,22.4446 222.5,29.5 Z M 211.5,24.5 C 213.25,25.6594 214.25,27.326 214.5,29.5C 215.115,33.9597 214.115,37.9597 211.5,41.5C 207.059,42.9466 203.726,41.6132 201.5,37.5C 201.19,33.3005 201.857,29.3005 203.5,25.5C 206.096,24.7347 208.763,24.4013 211.5,24.5 Z"/></g>
<g><path style="opacity:1" fill="#f5f6f7" d="M 237.5,23.5 C 235.738,24.2623 234.738,25.5956 234.5,27.5C 233.06,28.9461 232.393,30.7794 232.5,33C 232.514,34.3847 232.848,35.5514 233.5,36.5C 234.404,37.209 234.737,38.209 234.5,39.5C 234.738,41.4044 235.738,42.7377 237.5,43.5C 237.179,45.0481 236.179,45.7148 234.5,45.5C 232.577,49.0293 231.911,53.0293 232.5,57.5C 230.5,57.5 228.5,57.5 226.5,57.5C 226.334,48.1607 226.5,38.8274 227,29.5C 227.791,28.255 228.291,26.9217 228.5,25.5C 230.134,24.7934 231.468,23.6268 232.5,22C 234.833,21.3333 237.167,21.3333 239.5,22C 238.584,22.2784 237.918,22.7784 237.5,23.5 Z"/></g>
<g><path style="opacity:1" fill="#e2e5e8" d="M 90.5,29.5 C 90.5405,32.8806 90.2071,36.2139 89.5,39.5C 87.0243,45.6842 82.3576,48.3508 75.5,47.5C 73.3035,47.4954 71.3035,47.162 69.5,46.5C 63.6977,43.2245 61.3644,38.2245 62.5,31.5C 63.1041,22.9023 67.7708,18.9023 76.5,19.5C 83.6805,19.4154 88.3472,22.7488 90.5,29.5 Z M 75.5,23.5 C 78.3311,24.0787 80.6644,25.412 82.5,27.5C 82.8537,31.6372 82.3537,35.6372 81,39.5C 77.9053,43.327 74.9053,43.327 72,39.5C 70.566,35.5935 70.2327,31.5935 71,27.5C 72.3968,25.9297 73.8968,24.5964 75.5,23.5 Z"/></g>
<g><path style="opacity:0.604" fill="#868890" d="M 122.5,20.5 C 122.821,25.6946 122.487,30.6946 121.5,35.5C 121.5,30.5 121.5,25.5 121.5,20.5C 119.5,20.5 117.5,20.5 115.5,20.5C 115.5,20.1667 115.5,19.8333 115.5,19.5C 118.072,18.2916 120.406,18.6249 122.5,20.5 Z"/></g>
<g><path style="opacity:0.714" fill="#7c7f87" d="M 181.5,26.5 C 178.752,24.1276 175.752,23.4609 172.5,24.5C 172.962,23.1201 173.962,22.4534 175.5,22.5C 177.197,22.8988 178.863,23.3988 180.5,24C 181.252,24.6708 181.586,25.5041 181.5,26.5 Z"/></g>
<g><path style="opacity:0.031" fill="#323337" d="M 211.5,24.5 C 208.763,24.4013 206.096,24.7347 203.5,25.5C 204.492,23.9735 205.992,23.3068 208,23.5C 209.385,23.5143 210.551,23.8476 211.5,24.5 Z"/></g>
<g><path style="opacity:0.518" fill="#757b81" d="M 251.5,23.5 C 252.906,23.9731 253.573,24.9731 253.5,26.5C 252.094,26.0269 251.427,25.0269 251.5,23.5 Z"/></g>
<g><path style="opacity:0.102" fill="#1d222e" d="M 156.5,20.5 C 158.167,20.5 159.833,20.5 161.5,20.5C 161.5,22.5 161.5,24.5 161.5,26.5C 158.154,25.9264 154.821,25.2598 151.5,24.5C 150.205,25.0983 148.872,25.5983 147.5,26C 151.043,27.6083 154.043,29.9416 156.5,33C 158.025,34.0086 159.692,34.5086 161.5,34.5C 161.5,38.5 161.5,42.5 161.5,46.5C 160.778,46.0825 160.278,45.4158 160,44.5C 158.67,45.5822 157.17,46.2488 155.5,46.5C 158.391,43.2739 159.057,39.6072 157.5,35.5C 153.947,32.5562 149.947,30.3896 145.5,29C 142.833,27 142.833,25 145.5,23C 149.372,22.1088 153.038,22.6088 156.5,24.5C 157.626,23.1916 157.626,21.8583 156.5,20.5 Z"/></g>
<g><path style="opacity:1" fill="#e1e3e6" d="M 251.5,23.5 C 251.427,25.0269 252.094,26.0269 253.5,26.5C 254.434,27.5676 254.768,28.901 254.5,30.5C 254.668,34.6575 254.002,38.6575 252.5,42.5C 251.292,45.0442 249.292,46.3775 246.5,46.5C 242.298,46.8168 238.298,46.4834 234.5,45.5C 236.179,45.7148 237.179,45.0481 237.5,43.5C 245.356,44.4756 248.689,40.9756 247.5,33C 248.298,25.6326 244.964,22.4659 237.5,23.5C 237.918,22.7784 238.584,22.2784 239.5,22C 237.167,21.3333 234.833,21.3333 232.5,22C 231.468,23.6268 230.134,24.7934 228.5,25.5C 229.353,22.4821 231.353,20.6488 234.5,20C 238.5,19.3333 242.5,19.3333 246.5,20C 248.881,20.2233 250.547,21.39 251.5,23.5 Z"/></g>
<g><path style="opacity:0.556" fill="#878a92" d="M 181.5,26.5 C 182.117,26.6107 182.617,26.944 183,27.5C 183.5,33.8246 183.666,40.1579 183.5,46.5C 185.5,46.5 187.5,46.5 189.5,46.5C 187.702,48.1005 185.702,48.4338 183.5,47.5C 182.763,40.4779 182.097,33.4779 181.5,26.5 Z"/></g>
<g><path style="opacity:0.408" fill="#595b63" d="M 203.5,25.5 C 201.857,29.3005 201.19,33.3005 201.5,37.5C 200.359,34.3601 200.192,31.0267 201,27.5C 201.708,26.6195 202.542,25.9528 203.5,25.5 Z"/></g>
<g><path style="opacity:0.473" fill="#767a83" d="M 162.5,6.5 C 162.5,19.8333 162.5,33.1667 162.5,46.5C 164.5,46.5 166.5,46.5 168.5,46.5C 168.334,40.4908 168.501,34.4908 169,28.5C 169.377,27.0577 170.21,26.0577 171.5,25.5C 169.868,32.6971 169.035,40.0305 169,47.5C 166.215,48.9071 163.715,48.5737 161.5,46.5C 161.5,42.5 161.5,38.5 161.5,34.5C 161.5,31.8333 161.5,29.1667 161.5,26.5C 161.5,24.5 161.5,22.5 161.5,20.5C 161.181,15.6367 161.514,10.97 162.5,6.5 Z"/></g>
<g><path style="opacity:0.58" fill="#8b8e93" d="M 234.5,27.5 C 233.841,30.4552 233.508,33.4552 233.5,36.5C 232.848,35.5514 232.514,34.3847 232.5,33C 232.393,30.7794 233.06,28.9461 234.5,27.5 Z"/></g>
<g><path style="opacity:0.11" fill="#191e2b" d="M 94.5,25.5 C 94.3375,30.547 94.6708,35.547 95.5,40.5C 94.6851,39.5707 93.8518,38.5707 93,37.5C 91.8873,38.305 90.7206,38.9717 89.5,39.5C 90.2071,36.2139 90.5405,32.8806 90.5,29.5C 91.1174,29.6107 91.6174,29.944 92,30.5C 92.9853,28.8251 93.8186,27.1585 94.5,25.5 Z"/></g>
<g><path style="opacity:0.11" fill="#232633" d="M 189.5,28.5 C 191.167,29.8333 192.833,29.8333 194.5,28.5C 193.238,33.4507 193.905,38.1174 196.5,42.5C 195.185,41.5244 193.852,40.5244 192.5,39.5C 191.131,41.7639 190.131,44.0972 189.5,46.5C 189.5,40.5 189.5,34.5 189.5,28.5 Z"/></g>
<g><path style="opacity:0.845" fill="#a7abb3" d="M 94.5,20.5 C 96.6074,19.5318 98.9407,19.1984 101.5,19.5C 101.5,21.5 101.5,23.5 101.5,25.5C 101.5,29.5 101.5,33.5 101.5,37.5C 100.511,32.0247 100.178,26.358 100.5,20.5C 98.5,20.5 96.5,20.5 94.5,20.5 Z"/></g>
<g><path style="opacity:0.088" fill="#141827" d="M 122.5,20.5 C 123.833,20.5 125.167,20.5 126.5,20.5C 126.5,27.8333 126.5,35.1667 126.5,42.5C 125.768,41.1917 124.934,39.8584 124,38.5C 122.961,39.7101 121.794,40.7101 120.5,41.5C 121.15,39.5648 121.483,37.5648 121.5,35.5C 122.487,30.6946 122.821,25.6946 122.5,20.5 Z"/></g>
<g><path style="opacity:0.451" fill="#696d77" d="M 127.5,19.5 C 129.833,19.5 132.167,19.5 134.5,19.5C 134.5,19.8333 134.5,20.1667 134.5,20.5C 134.5,29.5 134.5,38.5 134.5,47.5C 132.019,48.2583 129.352,48.2583 126.5,47.5C 126.5,45.8333 126.5,44.1667 126.5,42.5C 126.5,35.1667 126.5,27.8333 126.5,20.5C 126.5,19.8333 126.833,19.5 127.5,19.5 Z"/></g>
<g><path style="opacity:1" fill="#fbfcfd" d="M 127.5,20.5 C 129.5,20.5 131.5,20.5 133.5,20.5C 133.5,29.1667 133.5,37.8333 133.5,46.5C 131.5,46.5 129.5,46.5 127.5,46.5C 127.5,37.8333 127.5,29.1667 127.5,20.5 Z"/></g>
<g><path style="opacity:0.078" fill="#1a1f2c" d="M 40.5,6.5 C 41.6266,7.12167 42.6266,7.95501 43.5,9C 42.8467,13.5861 42.5133,18.2528 42.5,23C 39.0935,39.2637 45.4269,45.7637 61.5,42.5C 61.185,38.6286 61.5184,34.9619 62.5,31.5C 61.3644,38.2245 63.6977,43.2245 69.5,46.5C 67.8561,46.7135 66.3561,46.3802 65,45.5C 63.8873,46.305 62.7206,46.9717 61.5,47.5C 61.5,46.5 61.5,45.5 61.5,44.5C 56.8215,44.6658 52.1548,44.4992 47.5,44C 43.6667,43.5 41.5,41.3333 41,37.5C 40.5002,27.172 40.3335,16.8387 40.5,6.5 Z"/></g>
<g><path style="opacity:0.118" fill="#20232d" d="M 101.5,25.5 C 102.325,29.6472 102.825,33.9805 103,38.5C 103.662,39.9839 104.496,41.3172 105.5,42.5C 102.703,42.0334 101.369,40.3667 101.5,37.5C 101.5,33.5 101.5,29.5 101.5,25.5 Z"/></g>
<g><path style="opacity:0.035" fill="#31353b" d="M 254.5,30.5 C 255.641,33.6399 255.808,36.9733 255,40.5C 254.292,41.3805 253.458,42.0472 252.5,42.5C 254.002,38.6575 254.668,34.6575 254.5,30.5 Z"/></g>
<g><path style="opacity:0.094" fill="#141a26" d="M 265.5,46.5 C 265.784,44.5853 265.451,42.9187 264.5,41.5C 261.92,39.9844 259.92,40.6511 258.5,43.5C 257.347,42.6868 257.347,41.6868 258.5,40.5C 260.765,39.3526 263.098,39.1859 265.5,40C 266.624,40.8388 267.291,42.0055 267.5,43.5C 267.36,45.0296 266.693,46.0296 265.5,46.5 Z"/></g>
<g><path style="opacity:0.118" fill="#2a2d36" d="M 75.5,23.5 C 73.8968,24.5964 72.3968,25.9297 71,27.5C 70.2327,31.5935 70.566,35.5935 72,39.5C 74.9053,43.327 77.9053,43.327 81,39.5C 82.3537,35.6372 82.8537,31.6372 82.5,27.5C 83.6453,31.3112 83.8119,35.3112 83,39.5C 78.3805,44.8226 73.7138,44.8226 69,39.5C 68.3333,35.5 68.3333,31.5 69,27.5C 70.5707,25.0771 72.7374,23.7438 75.5,23.5 Z"/></g>
<g><path style="opacity:0.596" fill="#565a62" d="M 115.5,19.5 C 115.5,19.8333 115.5,20.1667 115.5,20.5C 115.666,26.8421 115.5,33.1754 115,39.5C 114.578,41.4257 113.411,42.4257 111.5,42.5C 112.801,41.1184 113.634,39.4517 114,37.5C 114.172,31.3193 114.672,25.3193 115.5,19.5 Z"/></g>
<g><path style="opacity:0.22" fill="#282c37" d="M 214.5,29.5 C 216.235,34.2857 215.569,38.7857 212.5,43C 209.833,43.6667 207.167,43.6667 204.5,43C 202.393,41.7365 201.393,39.9032 201.5,37.5C 203.726,41.6132 207.059,42.9466 211.5,41.5C 214.115,37.9597 215.115,33.9597 214.5,29.5 Z"/></g>
<g><path style="opacity:0.024" fill="#31323a" d="M 221.5,40.5 C 221.573,42.0269 220.906,43.0269 219.5,43.5C 219.427,41.9731 220.094,40.9731 221.5,40.5 Z"/></g>
<g><path style="opacity:1" fill="#e0e4e7" d="M 264.5,41.5 C 264.5,43.1667 264.5,44.8333 264.5,46.5C 262.833,46.5 261.167,46.5 259.5,46.5C 258.596,45.791 258.263,44.791 258.5,43.5C 259.92,40.6511 261.92,39.9844 264.5,41.5 Z"/></g>
<g><path style="opacity:0.11" fill="#181b28" d="M 134.5,20.5 C 136.379,21.3414 138.379,21.6747 140.5,21.5C 137.633,25.7667 137.967,29.7667 141.5,33.5C 139.883,32.962 138.216,32.6287 136.5,32.5C 134.298,37.5679 135.631,41.2345 140.5,43.5C 138.158,44.2107 137.825,45.544 139.5,47.5C 137.833,47.5 136.167,47.5 134.5,47.5C 134.5,38.5 134.5,29.5 134.5,20.5 Z"/></g>
<g><path style="opacity:0.094" fill="#181c25" d="M 147.5,36.5 C 152.668,37.3385 153.668,39.8385 150.5,44C 146.973,44.8075 143.64,44.6408 140.5,43.5C 143.249,43.7261 145.916,43.3928 148.5,42.5C 149.77,40.2432 149.436,38.2432 147.5,36.5 Z"/></g>
<g><path style="opacity:0.106" fill="#23262f" d="M 237.5,23.5 C 244.964,22.4659 248.298,25.6326 247.5,33C 248.689,40.9756 245.356,44.4756 237.5,43.5C 235.738,42.7377 234.738,41.4044 234.5,39.5C 242.053,43.7509 246.053,41.5843 246.5,33C 245.554,24.3593 241.554,22.5259 234.5,27.5C 234.738,25.5956 235.738,24.2623 237.5,23.5 Z"/></g>
<g><path style="opacity:0.6" fill="#82868c" d="M 264.5,41.5 C 265.451,42.9187 265.784,44.5853 265.5,46.5C 263.5,47.8333 261.5,47.8333 259.5,46.5C 261.167,46.5 262.833,46.5 264.5,46.5C 264.5,44.8333 264.5,43.1667 264.5,41.5 Z"/></g>
<g><path style="opacity:0.201" fill="#1f252f" d="M 228.5,25.5 C 228.291,26.9217 227.791,28.255 227,29.5C 226.5,38.8274 226.334,48.1607 226.5,57.5C 226.5,57.8333 226.5,58.1667 226.5,58.5C 224.418,54.0606 224.084,49.394 225.5,44.5C 224.985,42.7749 224.318,41.1083 223.5,39.5C 222.817,39.8627 222.15,40.1961 221.5,40.5C 222.114,36.8648 222.448,33.1981 222.5,29.5C 223.552,29.6495 224.552,29.4828 225.5,29C 226.163,27.4815 227.163,26.3149 228.5,25.5 Z"/></g>
<g><path style="opacity:0.612" fill="#8a8e93" d="M 234.5,45.5 C 238.298,46.4834 242.298,46.8168 246.5,46.5C 242.6,47.7952 238.6,48.2952 234.5,48C 233.544,51.3936 233.211,54.8936 233.5,58.5C 231.167,58.5 228.833,58.5 226.5,58.5C 226.5,58.1667 226.5,57.8333 226.5,57.5C 228.5,57.5 230.5,57.5 232.5,57.5C 231.911,53.0293 232.577,49.0293 234.5,45.5 Z"/></g>
</svg>
