<?xml version="1.0" encoding="UTF-8"?>
<!DOCTYPE svg PUBLIC "-//W3C//DTD SVG 1.1//EN" "http://www.w3.org/Graphics/SVG/1.1/DTD/svg11.dtd">
<svg xmlns="http://www.w3.org/2000/svg" version="1.1" width="300px" height="66px" style="shape-rendering:geometricPrecision; text-rendering:geometricPrecision; image-rendering:optimizeQuality; fill-rule:evenodd; clip-rule:evenodd" xmlns:xlink="http://www.w3.org/1999/xlink">
<g><path style="opacity:0.99" fill="#2a2a2a" d="M 28.5,37.5 C 29.4316,40.3651 31.0983,42.6984 33.5,44.5C 33.9175,45.2216 34.5842,45.7216 35.5,46C 41.2599,45.8777 46.5932,46.711 51.5,48.5C 44.6113,49.8549 37.6113,49.6882 30.5,48C 25.0105,46.0212 22.0105,42.1879 21.5,36.5C 21.5,25.8333 21.5,15.1667 21.5,4.5C 23.5,4.5 25.5,4.5 27.5,4.5C 27.1721,15.6794 27.5054,26.6794 28.5,37.5 Z"/></g>
<g><path style="opacity:0.941" fill="#696969" d="M 132.5,6.5 C 126.47,3.91785 124.137,5.58451 125.5,11.5C 122.941,9.20668 122.941,6.70668 125.5,4C 127.5,3.33333 129.5,3.33333 131.5,4C 132.252,4.67076 132.586,5.5041 132.5,6.5 Z"/></g>
<g><path style="opacity:0.998" fill="#1b1b1b" d="M 170.5,4.5 C 170.5,9.83333 170.5,15.1667 170.5,20.5C 170.586,21.4959 170.252,22.3292 169.5,23C 171.107,24.049 171.773,25.549 171.5,27.5C 170.509,34.3134 170.175,41.3134 170.5,48.5C 168.5,48.5 166.5,48.5 164.5,48.5C 164.5,33.8333 164.5,19.1667 164.5,4.5C 166.5,4.5 168.5,4.5 170.5,4.5 Z"/></g>
<g><path style="opacity:0.655" fill="#848484" d="M 28.5,37.5 C 27.5054,26.6794 27.1721,15.6794 27.5,4.5C 25.5,4.5 23.5,4.5 21.5,4.5C 21.5,15.1667 21.5,25.8333 21.5,36.5C 20.5054,25.6794 20.1721,14.6794 20.5,3.5C 23.1667,3.5 25.8333,3.5 28.5,3.5C 28.5,14.8333 28.5,26.1667 28.5,37.5 Z"/></g>
<g><path style="opacity:0.761" fill="#4b4b4b" d="M 170.5,3.5 C 170.5,3.83333 170.5,4.16667 170.5,4.5C 168.5,4.5 166.5,4.5 164.5,4.5C 164.5,19.1667 164.5,33.8333 164.5,48.5C 164.167,48.5 163.833,48.5 163.5,48.5C 163.5,33.5 163.5,18.5 163.5,3.5C 165.833,3.5 168.167,3.5 170.5,3.5 Z"/></g>
<g><path style="opacity:1" fill="#343434" d="M 132.5,6.5 C 133.969,9.10238 133.302,11.269 130.5,13C 128.326,13.8769 126.659,13.3769 125.5,11.5C 124.137,5.58451 126.47,3.91785 132.5,6.5 Z"/></g>
<g><path style="opacity:0.427" fill="#848484" d="M 62.5,19.5 C 64.134,18.8389 65.9674,18.5056 68,18.5C 70.8655,18.2999 73.3655,18.9666 75.5,20.5C 71.2147,19.7051 66.8814,19.3718 62.5,19.5 Z"/></g>
<g><path style="opacity:0.084" fill="#dcdcdc" d="M 170.5,3.5 C 170.856,9.07704 171.856,14.4104 173.5,19.5C 172.791,20.404 171.791,20.7373 170.5,20.5C 170.5,15.1667 170.5,9.83333 170.5,4.5C 170.5,4.16667 170.5,3.83333 170.5,3.5 Z"/></g>
<g><path style="opacity:0.943" fill="#1e1e1e" d="M 62.5,19.5 C 66.8814,19.3718 71.2147,19.7051 75.5,20.5C 74.4479,22.256 72.7812,22.9227 70.5,22.5C 67.2296,21.5892 64.063,21.5892 61,22.5C 60.5357,21.9056 60.369,21.2389 60.5,20.5C 60.8417,19.6618 61.5084,19.3284 62.5,19.5 Z"/></g>
<g><path style="opacity:0.982" fill="#191919" d="M 131.5,19.5 C 131.5,29.1667 131.5,38.8333 131.5,48.5C 129.5,48.5 127.5,48.5 125.5,48.5C 125.5,38.8333 125.5,29.1667 125.5,19.5C 127.5,19.5 129.5,19.5 131.5,19.5 Z"/></g>
<g><path style="opacity:0.999" fill="#1a1a1a" d="M 117.5,40.5 C 115.309,41.2907 113.309,41.2907 111.5,40.5C 112.386,33.5433 112.72,26.5433 112.5,19.5C 114.167,19.5 115.833,19.5 117.5,19.5C 117.5,26.5 117.5,33.5 117.5,40.5 Z"/></g>
<g><path style="opacity:0.98" fill="#373737" d="M 143.5,19.5 C 147.048,19.0949 150.381,19.5949 153.5,21C 152.05,21.1171 150.55,20.9505 149,20.5C 147.124,20.5247 145.624,21.1914 144.5,22.5C 143.527,24.0683 143.36,25.735 144,27.5C 148.521,29.3788 152.688,31.7121 156.5,34.5C 158.123,37.2153 158.79,40.2153 158.5,43.5C 156.732,42.2379 155.065,41.2379 153.5,40.5C 153.5,39.8333 153.167,39.5 152.5,39.5C 148.676,37.4237 144.676,35.5903 140.5,34C 136.467,30.8324 135.633,26.9991 138,22.5C 139.488,20.84 141.321,19.84 143.5,19.5 Z"/></g>
<g><path style="opacity:0.928" fill="#5f5f5f" d="M 143.5,19.5 C 148.343,18.0438 153.176,18.3771 158,20.5C 158.667,22.1667 158.667,23.8333 158,25.5C 153.976,22.2015 149.476,21.2015 144.5,22.5C 145.624,21.1914 147.124,20.5247 149,20.5C 150.55,20.9505 152.05,21.1171 153.5,21C 150.381,19.5949 147.048,19.0949 143.5,19.5 Z"/></g>
<g><path style="opacity:0.959" fill="#5c5c5c" d="M 60.5,20.5 C 60.369,21.2389 60.5357,21.9056 61,22.5C 64.063,21.5892 67.2296,21.5892 70.5,22.5C 66.3745,22.0923 63.0412,23.4257 60.5,26.5C 60.5391,24.6412 59.7058,23.3079 58,22.5C 56.9609,23.7101 55.7942,24.7101 54.5,25.5C 55.2678,22.4384 57.2678,20.7717 60.5,20.5 Z"/></g>
<g><path style="opacity:0.973" fill="#5c5c5c" d="M 75.5,20.5 C 77.0269,20.427 78.0269,21.0937 78.5,22.5C 76.2591,23.2998 75.2591,24.9664 75.5,27.5C 74.1667,25.5 72.5,23.8333 70.5,22.5C 72.7812,22.9227 74.4479,22.256 75.5,20.5 Z"/></g>
<g><path style="opacity:0.997" fill="#1c1c1c" d="M 96.5,40.5 C 96.5,40.8333 96.5,41.1667 96.5,41.5C 96.427,43.0269 97.0937,44.0269 98.5,44.5C 98.6309,45.3764 98.2975,46.0431 97.5,46.5C 96.2638,45.7542 94.9305,45.4208 93.5,45.5C 93.5,44.5 93.5,43.5 93.5,42.5C 92.5,42.5 91.5,42.5 90.5,42.5C 89.6618,42.1583 89.3284,41.4916 89.5,40.5C 89.5,33.5 89.5,26.5 89.5,19.5C 91.1667,19.5 92.8333,19.5 94.5,19.5C 94.3338,25.5092 94.5005,31.5092 95,37.5C 95.2321,38.7375 95.7321,39.7375 96.5,40.5 Z"/></g>
<g><path style="opacity:0.447" fill="#878787" d="M 131.5,18.5 C 131.5,18.8333 131.5,19.1667 131.5,19.5C 129.5,19.5 127.5,19.5 125.5,19.5C 125.5,29.1667 125.5,38.8333 125.5,48.5C 125.167,48.5 124.833,48.5 124.5,48.5C 124.5,38.5 124.5,28.5 124.5,18.5C 126.833,18.5 129.167,18.5 131.5,18.5 Z"/></g>
<g><path style="opacity:0.828" fill="#808080" d="M 117.5,40.5 C 117.5,33.5 117.5,26.5 117.5,19.5C 115.833,19.5 114.167,19.5 112.5,19.5C 112.72,26.5433 112.386,33.5433 111.5,40.5C 111.167,40.5 110.833,40.5 110.5,40.5C 110.5,33.1667 110.5,25.8333 110.5,18.5C 113.5,18.5 116.5,18.5 119.5,18.5C 119.666,24.5092 119.499,30.5092 119,36.5C 118.79,38.0581 118.29,39.3915 117.5,40.5 Z"/></g>
<g><path style="opacity:0.321" fill="#b1b1b1" d="M 131.5,18.5 C 132.494,28.6532 132.828,38.9865 132.5,49.5C 129.615,49.8064 126.948,49.4731 124.5,48.5C 124.833,48.5 125.167,48.5 125.5,48.5C 127.5,48.5 129.5,48.5 131.5,48.5C 131.5,38.8333 131.5,29.1667 131.5,19.5C 131.5,19.1667 131.5,18.8333 131.5,18.5 Z"/></g>
<g><path style="opacity:0.8" fill="#838383" d="M 96.5,40.5 C 95.7321,39.7375 95.2321,38.7375 95,37.5C 94.5005,31.5092 94.3338,25.5092 94.5,19.5C 92.8333,19.5 91.1667,19.5 89.5,19.5C 89.5,26.5 89.5,33.5 89.5,40.5C 87.7611,33.412 87.0944,26.0787 87.5,18.5C 90.5,18.5 93.5,18.5 96.5,18.5C 96.5,25.8333 96.5,33.1667 96.5,40.5 Z"/></g>
<g><path style="opacity:0.992" fill="#1f1f1f" d="M 207.5,25.5 C 207.737,26.791 207.404,27.791 206.5,28.5C 205.676,32.3123 205.176,36.3123 205,40.5C 204.333,41.1667 203.667,41.8333 203,42.5C 202.329,41.7476 201.496,41.4142 200.5,41.5C 199.167,36.5 199.167,31.5 200.5,26.5C 201.906,26.0269 202.573,25.0269 202.5,23.5C 204.112,22.5477 205.612,22.2144 207,22.5C 207.483,23.448 207.649,24.448 207.5,25.5 Z"/></g>
<g><path style="opacity:0.557" fill="#929292" d="M 240.5,21.5 C 239.833,22.8333 238.833,23.8333 237.5,24.5C 237.5,22.5 238.5,21.5 240.5,21.5 Z"/></g>
<g><path style="opacity:0.989" fill="#2a2a2a" d="M 190.5,23.5 C 190.427,25.0269 191.094,26.0269 192.5,26.5C 193.434,27.5676 193.768,28.901 193.5,30.5C 193.5,36.5 193.5,42.5 193.5,48.5C 191.5,48.5 189.5,48.5 187.5,48.5C 187.666,41.825 187.5,35.1583 187,28.5C 186.722,27.5842 186.222,26.9175 185.5,26.5C 184.173,24.0358 182.007,23.0358 179,23.5C 175.403,22.9574 172.903,24.2908 171.5,27.5C 171.773,25.549 171.107,24.049 169.5,23C 170.252,22.3292 170.586,21.4959 170.5,20.5C 171.791,20.7373 172.791,20.404 173.5,19.5C 178.661,18.0694 183.661,18.5694 188.5,21C 189.381,21.7083 190.047,22.5416 190.5,23.5 Z"/></g>
<g><path style="opacity:0.373" fill="#9f9f9f" d="M 190.5,23.5 C 191.906,23.9731 192.573,24.9731 192.5,26.5C 191.094,26.0269 190.427,25.0269 190.5,23.5 Z"/></g>
<g><path style="opacity:0.514" fill="#8c8c8c" d="M 202.5,23.5 C 202.573,25.0269 201.906,26.0269 200.5,26.5C 200.427,24.9731 201.094,23.9731 202.5,23.5 Z"/></g>
<g><path style="opacity:0.99" fill="#212121" d="M 60.5,26.5 C 60.5,26.8333 60.5,27.1667 60.5,27.5C 59.0277,29.1175 58.361,31.1175 58.5,33.5C 59.0124,36.1859 59.179,38.8525 59,41.5C 58.6924,42.3081 58.1924,42.9747 57.5,43.5C 56.5832,42.8728 55.5832,42.5394 54.5,42.5C 53.596,41.791 53.2627,40.791 53.5,39.5C 53.5,35.5 53.5,31.5 53.5,27.5C 53.3284,26.5084 53.6618,25.8417 54.5,25.5C 55.7942,24.7101 56.9609,23.7101 58,22.5C 59.7058,23.3079 60.5391,24.6412 60.5,26.5 Z"/></g>
<g><path style="opacity:0.992" fill="#3a3a3a" d="M 78.5,22.5 C 80.7082,23.8936 82.2082,25.8936 83,28.5C 85.0445,43.2795 78.8778,49.9462 64.5,48.5C 63.6016,47.8423 62.6016,47.1757 61.5,46.5C 61.8457,45.3044 62.3457,45.3044 63,46.5C 65.9386,45.8719 68.7719,45.2052 71.5,44.5C 73.1733,43.657 74.34,42.3237 75,40.5C 75.499,36.1794 75.6657,31.8461 75.5,27.5C 75.2591,24.9664 76.2591,23.2998 78.5,22.5 Z"/></g>
<g><path style="opacity:0.108" fill="#d5d5d5" d="M 171.5,27.5 C 171.5,34.8333 171.5,42.1667 171.5,49.5C 168.615,49.8064 165.948,49.4731 163.5,48.5C 163.833,48.5 164.167,48.5 164.5,48.5C 166.5,48.5 168.5,48.5 170.5,48.5C 170.175,41.3134 170.509,34.3134 171.5,27.5 Z"/></g>
<g><path style="opacity:0.986" fill="#424242" d="M 200.5,41.5 C 201.496,41.4142 202.329,41.7476 203,42.5C 203.667,41.8333 204.333,41.1667 205,40.5C 205.176,36.3123 205.676,32.3123 206.5,28.5C 206.032,33.3697 206.698,38.0364 208.5,42.5C 217.504,47.0117 222.171,44.1783 222.5,34C 222.615,29.8318 221.282,26.3318 218.5,23.5C 217.688,22.0069 216.355,21.3402 214.5,21.5C 212.443,21.4357 210.777,22.1024 209.5,23.5C 209.167,24.5 208.5,25.1667 207.5,25.5C 207.649,24.448 207.483,23.448 207,22.5C 205.612,22.2144 204.112,22.5477 202.5,23.5C 203.894,21.2918 205.894,19.7918 208.5,19C 221.364,16.0878 228.697,21.0878 230.5,34C 230.288,42.1162 226.288,47.1162 218.5,49C 210.693,50.4626 204.693,47.9626 200.5,41.5 Z"/></g>
<g><path style="opacity:0.671" fill="#848484" d="M 218.5,23.5 C 215.523,22.3224 212.523,22.3224 209.5,23.5C 210.777,22.1024 212.443,21.4357 214.5,21.5C 216.355,21.3402 217.688,22.0069 218.5,23.5 Z"/></g>
<g><path style="opacity:0.581" fill="#6c6c6c" d="M 185.5,26.5 C 186.222,26.9175 186.722,27.5842 187,28.5C 187.5,35.1583 187.666,41.825 187.5,48.5C 187.167,48.5 186.833,48.5 186.5,48.5C 186.726,41.1239 186.392,33.7906 185.5,26.5 Z"/></g>
<g><path style="opacity:0.989" fill="#242424" d="M 240.5,21.5 C 242.446,22.0347 243.446,23.368 243.5,25.5C 242.45,30.1138 242.283,34.7804 243,39.5C 243.697,41.5844 244.864,43.2511 246.5,44.5C 246.918,45.2216 247.584,45.7216 248.5,46C 247.099,46.4101 245.766,46.9101 244.5,47.5C 243.5,47.5 242.5,47.5 241.5,47.5C 241.5,51.8333 241.5,56.1667 241.5,60.5C 239.5,60.5 237.5,60.5 235.5,60.5C 235.5,50.1667 235.5,39.8333 235.5,29.5C 235.402,27.4471 236.069,25.7804 237.5,24.5C 238.833,23.8333 239.833,22.8333 240.5,21.5 Z"/></g>
<g><path style="opacity:0.627" fill="#6e6e6e" d="M 255.5,23.5 C 257.614,24.3602 258.78,26.0268 259,28.5C 259.805,31.6965 259.638,34.6965 258.5,37.5C 258.959,32.4801 257.959,27.8134 255.5,23.5 Z"/></g>
<g><path style="opacity:0.818" fill="#828282" d="M 53.5,27.5 C 53.5,31.5 53.5,35.5 53.5,39.5C 50.8333,35.5 50.8333,31.5 53.5,27.5 Z"/></g>
<g><path style="opacity:0.424" fill="#9f9f9f" d="M 200.5,26.5 C 199.167,31.5 199.167,36.5 200.5,41.5C 197.833,36.5 197.833,31.5 200.5,26.5 Z"/></g>
<g><path style="opacity:0.455" fill="#9b9b9b" d="M 156.5,34.5 C 157.458,34.9528 158.292,35.6195 159,36.5C 159.796,39.0385 159.629,41.3718 158.5,43.5C 158.79,40.2153 158.123,37.2153 156.5,34.5 Z"/></g>
<g><path style="opacity:0.183" fill="#cfcfcf" d="M 193.5,30.5 C 194.49,36.6446 194.823,42.9779 194.5,49.5C 191.615,49.8064 188.948,49.4731 186.5,48.5C 186.833,48.5 187.167,48.5 187.5,48.5C 189.5,48.5 191.5,48.5 193.5,48.5C 193.5,42.5 193.5,36.5 193.5,30.5 Z"/></g>
<g><path style="opacity:0.426" fill="#9c9c9c" d="M 235.5,29.5 C 235.5,39.8333 235.5,50.1667 235.5,60.5C 237.5,60.5 239.5,60.5 241.5,60.5C 241.5,56.1667 241.5,51.8333 241.5,47.5C 242.5,47.5 243.5,47.5 244.5,47.5C 244.5,47.8333 244.5,48.1667 244.5,48.5C 242.57,52.3727 241.903,56.706 242.5,61.5C 239.833,61.5 237.167,61.5 234.5,61.5C 234.172,50.6536 234.506,39.9869 235.5,29.5 Z"/></g>
<g><path style="opacity:0.976" fill="#585858" d="M 60.5,27.5 C 58.7399,33.5307 59.7399,39.0307 63.5,44C 66.146,44.4974 68.8127,44.6641 71.5,44.5C 68.7719,45.2052 65.9386,45.8719 63,46.5C 62.3457,45.3044 61.8457,45.3044 61.5,46.5C 62.6016,47.1757 63.6016,47.8423 64.5,48.5C 59.9254,48.5469 56.5921,46.5469 54.5,42.5C 55.5832,42.5394 56.5832,42.8728 57.5,43.5C 58.1924,42.9747 58.6924,42.3081 59,41.5C 59.179,38.8525 59.0124,36.1859 58.5,33.5C 58.361,31.1175 59.0277,29.1175 60.5,27.5 Z"/></g>
<g><path style="opacity:0.959" fill="#3b3b3b" d="M 244.5,48.5 C 244.5,48.1667 244.5,47.8333 244.5,47.5C 245.766,46.9101 247.099,46.4101 248.5,46C 247.584,45.7216 246.918,45.2216 246.5,44.5C 249.167,44.5 251.833,44.5 254.5,44.5C 257.776,43.8784 259.109,41.8784 258.5,38.5C 258.5,38.1667 258.5,37.8333 258.5,37.5C 259.638,34.6965 259.805,31.6965 259,28.5C 258.78,26.0268 257.614,24.3602 255.5,23.5C 251.105,21.9337 247.105,22.6004 243.5,25.5C 243.446,23.368 242.446,22.0347 240.5,21.5C 241.347,20.0337 242.68,19.2004 244.5,19C 261.963,16.7437 268.797,24.2437 265,41.5C 261.879,47.1463 257.045,49.813 250.5,49.5C 248.452,49.3282 246.452,48.9949 244.5,48.5 Z"/></g>
<g><path style="opacity:0.608" fill="#ababab" d="M 96.5,41.5 C 97.8333,42.1667 98.8333,43.1667 99.5,44.5C 99.1667,44.5 98.8333,44.5 98.5,44.5C 97.0937,44.0269 96.427,43.0269 96.5,41.5 Z"/></g>
<g><path style="opacity:0.98" fill="#575757" d="M 153.5,40.5 C 155.065,41.2379 156.732,42.2379 158.5,43.5C 157.641,46.4521 155.641,48.2854 152.5,49C 148.311,49.8119 144.311,49.6453 140.5,48.5C 145.641,48.6548 150.641,47.9881 155.5,46.5C 155.715,44.8212 155.048,43.8212 153.5,43.5C 153.5,42.5 153.5,41.5 153.5,40.5 Z"/></g>
<g><path style="opacity:0.09" fill="#eaeaea" d="M 138.5,44.5 C 137.662,44.8417 137.328,45.5084 137.5,46.5C 136.224,45.6136 136.224,44.6136 137.5,43.5C 138.107,43.6236 138.44,43.9569 138.5,44.5 Z"/></g>
<g><path style="opacity:0.631" fill="#888888" d="M 258.5,38.5 C 259.109,41.8784 257.776,43.8784 254.5,44.5C 256.29,42.7278 257.623,40.7278 258.5,38.5 Z"/></g>
<g><path style="opacity:0.97" fill="#505050" d="M 271.5,41.5 C 278.004,41.1377 279.671,43.6377 276.5,49C 270.785,49.401 269.119,46.901 271.5,41.5 Z"/></g>
<g><path style="opacity:0.761" fill="#9a9a9a" d="M 152.5,39.5 C 153.167,39.5 153.5,39.8333 153.5,40.5C 153.5,41.5 153.5,42.5 153.5,43.5C 153.027,44.9063 152.027,45.573 150.5,45.5C 152.081,43.8583 152.747,41.8583 152.5,39.5 Z"/></g>
<g><path style="opacity:0.657" fill="#747474" d="M 33.5,44.5 C 39.7889,45.3721 46.1222,45.7054 52.5,45.5C 52.7373,46.791 52.404,47.791 51.5,48.5C 46.5932,46.711 41.2599,45.8777 35.5,46C 34.5842,45.7216 33.9175,45.2216 33.5,44.5 Z"/></g>
<g><path style="opacity:0.968" fill="#444444" d="M 110.5,40.5 C 110.833,40.5 111.167,40.5 111.5,40.5C 113.309,41.2907 115.309,41.2907 117.5,40.5C 114.909,46.4761 110.242,49.4761 103.5,49.5C 100.044,49.1818 96.7106,48.3484 93.5,47C 91.8588,45.871 90.8588,44.371 90.5,42.5C 91.5,42.5 92.5,42.5 93.5,42.5C 93.5,43.5 93.5,44.5 93.5,45.5C 94.9305,45.4208 96.2638,45.7542 97.5,46.5C 98.2975,46.0431 98.6309,45.3764 98.5,44.5C 98.8333,44.5 99.1667,44.5 99.5,44.5C 104.192,45.4876 107.859,44.1542 110.5,40.5 Z"/></g>
<g><path style="opacity:0.96" fill="#333333" d="M 153.5,43.5 C 155.048,43.8212 155.715,44.8212 155.5,46.5C 150.641,47.9881 145.641,48.6548 140.5,48.5C 138.821,48.7148 137.821,48.0481 137.5,46.5C 137.328,45.5084 137.662,44.8417 138.5,44.5C 142.434,45.3597 146.434,45.693 150.5,45.5C 152.027,45.573 153.027,44.9063 153.5,43.5 Z"/></g>
</svg>
