<?xml version="1.0" encoding="UTF-8"?>
<!DOCTYPE svg PUBLIC "-//W3C//DTD SVG 1.1//EN" "http://www.w3.org/Graphics/SVG/1.1/DTD/svg11.dtd">
<svg xmlns="http://www.w3.org/2000/svg" version="1.1" width="300px" height="186px" style="shape-rendering:geometricPrecision; text-rendering:geometricPrecision; image-rendering:optimizeQuality; fill-rule:evenodd; clip-rule:evenodd" xmlns:xlink="http://www.w3.org/1999/xlink">
<g><path style="opacity:0.202" fill="#aaaaaa" d="M 104.5,22.5 C 100.779,20.9225 97.7789,18.4225 95.5,15C 86.5062,14.5002 77.5062,14.3336 68.5,14.5C 68.5,19.5 68.5,24.5 68.5,29.5C 68.1667,29.5 67.8333,29.5 67.5,29.5C 67.5,23.8333 67.5,18.1667 67.5,12.5C 76.8393,12.3335 86.1726,12.5002 95.5,13C 99.064,15.728 102.064,18.8946 104.5,22.5 Z"/></g>
<g><path style="opacity:0.999" fill="#0e0e0e" d="M 104.5,22.5 C 107.758,26.4248 111.425,30.0915 115.5,33.5C 115.414,34.4959 115.748,35.3292 116.5,36C 154.499,36.5 192.499,36.6667 230.5,36.5C 230.275,48.1946 229.608,59.8613 228.5,71.5C 227.778,71.9175 227.278,72.5842 227,73.5C 226.503,76.146 226.336,78.8127 226.5,81.5C 226.002,86.1522 225.669,90.8189 225.5,95.5C 223.787,96.6354 223.12,98.302 223.5,100.5C 192.995,100.169 162.662,100.502 132.5,101.5C 132.5,103.5 132.5,105.5 132.5,107.5C 160.169,107.333 187.835,107.5 215.5,108C 218.665,110.335 221.665,112.835 224.5,115.5C 226.35,119.645 226.85,123.979 226,128.5C 224.156,132.189 222.322,135.855 220.5,139.5C 218.228,140.319 215.894,140.985 213.5,141.5C 211.801,141.34 210.134,141.506 208.5,142C 207.978,142.561 207.645,143.228 207.5,144C 211.079,146.277 214.413,148.777 217.5,151.5C 217.5,152.167 217.5,152.833 217.5,153.5C 217.5,156.5 217.5,159.5 217.5,162.5C 215.588,164.99 213.255,166.99 210.5,168.5C 207.214,169.207 203.881,169.54 200.5,169.5C 198.05,168.289 196.05,166.622 194.5,164.5C 193.167,159.833 193.167,155.167 194.5,150.5C 195.167,149.167 196.167,148.167 197.5,147.5C 200.335,146.931 202.001,145.264 202.5,142.5C 182.167,142.5 161.833,142.5 141.5,142.5C 141.862,145.887 143.862,147.553 147.5,147.5C 148.5,148.167 149.5,148.833 150.5,149.5C 154.519,158.444 152.186,165.11 143.5,169.5C 140.14,169.384 136.807,169.051 133.5,168.5C 130.833,167.833 129.167,166.167 128.5,163.5C 127.167,159.5 127.167,155.5 128.5,151.5C 129.026,149.77 130.026,148.436 131.5,147.5C 135.138,147.553 137.138,145.887 137.5,142.5C 131.833,142.5 126.167,142.5 120.5,142.5C 120.5,137.833 120.5,133.167 120.5,128.5C 150.338,128.831 180.005,128.498 209.5,127.5C 210.139,126.903 210.472,126.07 210.5,125C 210.316,123.624 209.649,122.791 208.5,122.5C 179.338,121.502 150.005,121.169 120.5,121.5C 120.662,119.473 120.495,117.473 120,115.5C 119.617,114.944 119.117,114.611 118.5,114.5C 115.926,102.48 113.259,90.4799 110.5,78.5C 110.33,76.1516 109.997,73.8183 109.5,71.5C 109.36,69.9704 108.693,68.9704 107.5,68.5C 107.5,68.1667 107.5,67.8333 107.5,67.5C 106.603,59.709 105.103,52.0424 103,44.5C 99.0268,39.3737 94.5268,34.5403 89.5,30C 82.5079,29.5004 75.5079,29.3337 68.5,29.5C 68.5,24.5 68.5,19.5 68.5,14.5C 77.5062,14.3336 86.5062,14.5002 95.5,15C 97.7789,18.4225 100.779,20.9225 104.5,22.5 Z M 123.5,60.5 C 123.5,59.8333 123.5,59.1667 123.5,58.5C 122.962,56.8828 122.629,55.2161 122.5,53.5C 126.833,53.5 131.167,53.5 135.5,53.5C 135.5,55.8333 135.5,58.1667 135.5,60.5C 131.5,60.5 127.5,60.5 123.5,60.5 Z M 160.5,53.5 C 163.833,53.5 167.167,53.5 170.5,53.5C 170.5,55.8333 170.5,58.1667 170.5,60.5C 167.167,60.5 163.833,60.5 160.5,60.5C 160.5,58.1667 160.5,55.8333 160.5,53.5 Z M 194.5,53.5 C 196.833,53.5 199.167,53.5 201.5,53.5C 201.5,55.8333 201.5,58.1667 201.5,60.5C 199.167,60.5 196.833,60.5 194.5,60.5C 194.5,58.1667 194.5,55.8333 194.5,53.5 Z M 178.5,53.5 C 181.5,53.5 184.5,53.5 187.5,53.5C 187.5,55.8333 187.5,58.1667 187.5,60.5C 184.5,60.5 181.5,60.5 178.5,60.5C 178.5,58.1667 178.5,55.8333 178.5,53.5 Z M 153.5,53.5 C 153.5,55.8333 153.5,58.1667 153.5,60.5C 150.167,60.5 146.833,60.5 143.5,60.5C 143.5,58.1667 143.5,55.8333 143.5,53.5C 146.833,53.5 150.167,53.5 153.5,53.5 Z M 208.5,53.5 C 213.5,53.5 218.5,53.5 223.5,53.5C 223.5,54.5 223.5,55.5 223.5,56.5C 223.5,57.8333 223.5,59.1667 223.5,60.5C 218.5,60.5 213.5,60.5 208.5,60.5C 208.5,58.1667 208.5,55.8333 208.5,53.5 Z M 125.5,69.5 C 128.625,68.5206 131.958,68.1872 135.5,68.5C 135.5,71.8333 135.5,75.1667 135.5,78.5C 132.833,78.5 130.167,78.5 127.5,78.5C 127.324,75.2727 126.657,72.2727 125.5,69.5 Z M 194.5,68.5 C 196.833,68.5 199.167,68.5 201.5,68.5C 201.5,71.8333 201.5,75.1667 201.5,78.5C 199.167,78.5 196.833,78.5 194.5,78.5C 194.5,75.1667 194.5,71.8333 194.5,68.5 Z M 222.5,68.5 C 222.5,69.5 222.5,70.5 222.5,71.5C 221.076,73.5145 220.41,75.8478 220.5,78.5C 216.5,78.5 212.5,78.5 208.5,78.5C 208.5,75.1667 208.5,71.8333 208.5,68.5C 213.167,68.5 217.833,68.5 222.5,68.5 Z M 187.5,78.5 C 184.5,78.5 181.5,78.5 178.5,78.5C 178.5,75.1667 178.5,71.8333 178.5,68.5C 181.5,68.5 184.5,68.5 187.5,68.5C 187.5,71.8333 187.5,75.1667 187.5,78.5 Z M 153.5,68.5 C 153.5,71.8333 153.5,75.1667 153.5,78.5C 150.167,78.5 146.833,78.5 143.5,78.5C 143.5,75.1667 143.5,71.8333 143.5,68.5C 146.833,68.5 150.167,68.5 153.5,68.5 Z M 170.5,68.5 C 170.5,71.8333 170.5,75.1667 170.5,78.5C 167.167,78.5 163.833,78.5 160.5,78.5C 160.5,75.1667 160.5,71.8333 160.5,68.5C 163.833,68.5 167.167,68.5 170.5,68.5 Z M 128.5,85.5 C 130.607,84.5318 132.941,84.1984 135.5,84.5C 135.5,87.8333 135.5,91.1667 135.5,94.5C 134.167,94.5 132.833,94.5 131.5,94.5C 130.895,91.8733 130.395,89.2066 130,86.5C 129.617,85.944 129.117,85.6107 128.5,85.5 Z M 178.5,84.5 C 181.5,84.5 184.5,84.5 187.5,84.5C 187.5,87.8333 187.5,91.1667 187.5,94.5C 184.5,94.5 181.5,94.5 178.5,94.5C 178.5,91.1667 178.5,87.8333 178.5,84.5 Z M 144.5,84.5 C 147.167,84.5 149.833,84.5 152.5,84.5C 153.414,87.728 153.747,91.0613 153.5,94.5C 150.167,94.5 146.833,94.5 143.5,94.5C 143.253,91.0613 143.586,87.728 144.5,84.5 Z M 160.5,84.5 C 163.833,84.5 167.167,84.5 170.5,84.5C 170.5,87.8333 170.5,91.1667 170.5,94.5C 167.167,94.5 163.833,94.5 160.5,94.5C 160.5,91.1667 160.5,87.8333 160.5,84.5 Z M 194.5,84.5 C 196.833,84.5 199.167,84.5 201.5,84.5C 201.5,87.8333 201.5,91.1667 201.5,94.5C 199.167,94.5 196.833,94.5 194.5,94.5C 194.5,91.1667 194.5,87.8333 194.5,84.5 Z M 208.5,84.5 C 212.167,84.5 215.833,84.5 219.5,84.5C 219.5,87.8333 219.5,91.1667 219.5,94.5C 215.833,94.5 212.167,94.5 208.5,94.5C 208.5,91.1667 208.5,87.8333 208.5,84.5 Z"/></g>
<g><path style="opacity:1" fill="#626262" d="M 95.5,21.5 C 94.5318,23.6074 94.1984,25.9407 94.5,28.5C 93.1997,25.9759 93.1997,23.3092 94.5,20.5C 95.1067,20.6236 95.44,20.9569 95.5,21.5 Z"/></g>
<g><path style="opacity:0.02" fill="#d2d2d2" d="M 104.5,22.5 C 109.126,25.4578 113.126,29.1245 116.5,33.5C 116.167,33.5 115.833,33.5 115.5,33.5C 111.425,30.0915 107.758,26.4248 104.5,22.5 Z"/></g>
<g><path style="opacity:0.08" fill="#e2e2e2" d="M 117.5,34.5 C 155.848,33.8394 193.848,34.5061 231.5,36.5C 231.167,36.5 230.833,36.5 230.5,36.5C 192.833,35.8333 155.167,35.1667 117.5,34.5 Z"/></g>
<g><path style="opacity:0.383" fill="#9c9c9c" d="M 115.5,33.5 C 115.833,33.5 116.167,33.5 116.5,33.5C 117.167,33.5 117.5,33.8333 117.5,34.5C 155.167,35.1667 192.833,35.8333 230.5,36.5C 192.499,36.6667 154.499,36.5 116.5,36C 115.748,35.3292 115.414,34.4959 115.5,33.5 Z"/></g>
<g><path style="opacity:0.051" fill="#c8c8c8" d="M 67.5,29.5 C 67.8333,29.5 68.1667,29.5 68.5,29.5C 75.5079,29.3337 82.5079,29.5004 89.5,30C 94.5268,34.5403 99.0268,39.3737 103,44.5C 105.103,52.0424 106.603,59.709 107.5,67.5C 106.883,67.3893 106.383,67.056 106,66.5C 104.332,58.8309 102.666,51.1643 101,43.5C 96.5271,39.6938 92.3604,35.5271 88.5,31C 81.3213,30.8285 74.3213,30.3285 67.5,29.5 Z"/></g>
<g><path style="opacity:0.867" fill="#5d5d5d" d="M 111.5,37.5 C 112.267,38.172 112.934,39.0053 113.5,40C 151.165,40.5 188.832,40.6667 226.5,40.5C 226.784,42.4147 226.451,44.0813 225.5,45.5C 225.5,44.5 225.5,43.5 225.5,42.5C 188.337,41.5015 151.004,41.1682 113.5,41.5C 111.896,40.713 111.229,39.3797 111.5,37.5 Z"/></g>
<g><path style="opacity:0.393" fill="#a5a5a5" d="M 113.5,41.5 C 151.004,41.1682 188.337,41.5015 225.5,42.5C 193.5,42.5 161.5,42.5 129.5,42.5C 129.5,43.5 129.5,44.5 129.5,45.5C 161.5,45.5 193.5,45.5 225.5,45.5C 225.5,45.8333 225.5,46.1667 225.5,46.5C 188.5,46.5 151.5,46.5 114.5,46.5C 115.806,45.5326 116.473,44.1993 116.5,42.5C 115.209,42.7373 114.209,42.404 113.5,41.5 Z"/></g>
<g><path style="opacity:0.12" fill="#dedede" d="M 225.5,42.5 C 225.5,43.5 225.5,44.5 225.5,45.5C 193.5,45.5 161.5,45.5 129.5,45.5C 129.5,44.5 129.5,43.5 129.5,42.5C 161.5,42.5 193.5,42.5 225.5,42.5 Z"/></g>
<g><path style="opacity:0.948" fill="#2a2a2a" d="M 114.5,46.5 C 151.5,46.5 188.5,46.5 225.5,46.5C 189.004,47.4985 152.337,47.8318 115.5,47.5C 115.833,50.1667 116.167,52.8333 116.5,55.5C 116.167,55.5 115.833,55.5 115.5,55.5C 114.841,52.5448 114.508,49.5448 114.5,46.5 Z"/></g>
<g><path style="opacity:1" fill="#6e6e6e" d="M 107.5,43.5 C 108.222,43.9175 108.722,44.5842 109,45.5C 109.497,48.146 109.664,50.8127 109.5,53.5C 108.419,50.3733 107.753,47.0399 107.5,43.5 Z"/></g>
<g><path style="opacity:0.327" fill="#b6b6b6" d="M 159.5,51.5 C 163.5,51.5 167.5,51.5 171.5,51.5C 171.5,55.1667 171.5,58.8333 171.5,62.5C 167.5,62.5 163.5,62.5 159.5,62.5C 159.5,58.8333 159.5,55.1667 159.5,51.5 Z M 160.5,53.5 C 160.5,55.8333 160.5,58.1667 160.5,60.5C 163.833,60.5 167.167,60.5 170.5,60.5C 170.5,58.1667 170.5,55.8333 170.5,53.5C 167.167,53.5 163.833,53.5 160.5,53.5 Z"/></g>
<g><path style="opacity:0.327" fill="#a0a0a0" d="M 188.5,52.5 C 184.833,52.5 181.167,52.5 177.5,52.5C 177.5,55.5 177.5,58.5 177.5,61.5C 181.167,61.5 184.833,61.5 188.5,61.5C 184.702,62.4834 180.702,62.8168 176.5,62.5C 176.5,58.8333 176.5,55.1667 176.5,51.5C 180.702,51.1832 184.702,51.5166 188.5,52.5 Z"/></g>
<g><path style="opacity:0.071" fill="#e3e3e3" d="M 123.5,60.5 C 127.5,60.5 131.5,60.5 135.5,60.5C 135.5,58.1667 135.5,55.8333 135.5,53.5C 131.167,53.5 126.833,53.5 122.5,53.5C 122.629,55.2161 122.962,56.8828 123.5,58.5C 122.833,58.5 122.167,58.5 121.5,58.5C 121.5,57.1667 121.5,55.8333 121.5,54.5C 126.056,52.5583 131.056,51.8917 136.5,52.5C 136.5,55.5 136.5,58.5 136.5,61.5C 131.968,61.8182 127.634,61.4849 123.5,60.5 Z"/></g>
<g><path style="opacity:0.043" fill="#e3e3e3" d="M 188.5,52.5 C 188.5,55.5 188.5,58.5 188.5,61.5C 184.833,61.5 181.167,61.5 177.5,61.5C 177.5,58.5 177.5,55.5 177.5,52.5C 181.167,52.5 184.833,52.5 188.5,52.5 Z M 178.5,53.5 C 178.5,55.8333 178.5,58.1667 178.5,60.5C 181.5,60.5 184.5,60.5 187.5,60.5C 187.5,58.1667 187.5,55.8333 187.5,53.5C 184.5,53.5 181.5,53.5 178.5,53.5 Z"/></g>
<g><path style="opacity:0.251" fill="#c3c3c3" d="M 194.5,51.5 C 197.167,51.5 199.833,51.5 202.5,51.5C 202.5,54.8333 202.5,58.1667 202.5,61.5C 199.615,61.8064 196.948,61.4731 194.5,60.5C 196.833,60.5 199.167,60.5 201.5,60.5C 201.5,58.1667 201.5,55.8333 201.5,53.5C 199.167,53.5 196.833,53.5 194.5,53.5C 194.5,52.8333 194.5,52.1667 194.5,51.5 Z"/></g>
<g><path style="opacity:1" fill="#7d7d7d" d="M 115.5,55.5 C 115.833,55.5 116.167,55.5 116.5,55.5C 117.15,57.4352 117.483,59.4352 117.5,61.5C 115.926,59.8984 115.259,57.8984 115.5,55.5 Z"/></g>
<g><path style="opacity:0.408" fill="#959595" d="M 121.5,58.5 C 122.167,58.5 122.833,58.5 123.5,58.5C 123.5,59.1667 123.5,59.8333 123.5,60.5C 127.634,61.4849 131.968,61.8182 136.5,61.5C 136.5,58.5 136.5,55.5 136.5,52.5C 131.056,51.8917 126.056,52.5583 121.5,54.5C 120.596,53.791 120.263,52.791 120.5,51.5C 126.167,51.5 131.833,51.5 137.5,51.5C 137.5,55.1667 137.5,58.8333 137.5,62.5C 132.456,62.8275 127.456,62.4941 122.5,61.5C 121.873,60.5832 121.539,59.5832 121.5,58.5 Z"/></g>
<g><path style="opacity:0.394" fill="#919191" d="M 141.5,51.5 C 145.833,51.5 150.167,51.5 154.5,51.5C 154.5,55.1667 154.5,58.8333 154.5,62.5C 150.167,62.5 145.833,62.5 141.5,62.5C 141.5,58.8333 141.5,55.1667 141.5,51.5 Z M 153.5,53.5 C 153.5,55.8333 153.5,58.1667 153.5,60.5C 150.167,60.5 146.833,60.5 143.5,60.5C 143.5,58.1667 143.5,55.8333 143.5,53.5C 146.833,53.5 150.167,53.5 153.5,53.5 Z"/></g>
<g><path style="opacity:0.09" fill="#dddddd" d="M 153.5,53.5 C 150.167,53.5 146.833,53.5 143.5,53.5C 143.5,55.8333 143.5,58.1667 143.5,60.5C 146.833,60.5 150.167,60.5 153.5,60.5C 150.038,61.4816 146.371,61.815 142.5,61.5C 142.5,58.5 142.5,55.5 142.5,52.5C 146.371,52.185 150.038,52.5184 153.5,53.5 Z"/></g>
<g><path style="opacity:0.403" fill="#8a8a8a" d="M 194.5,51.5 C 194.5,52.1667 194.5,52.8333 194.5,53.5C 194.5,55.8333 194.5,58.1667 194.5,60.5C 196.948,61.4731 199.615,61.8064 202.5,61.5C 199.713,62.4767 196.713,62.81 193.5,62.5C 193.185,58.6286 193.518,54.9619 194.5,51.5 Z"/></g>
<g><path style="opacity:0.42" fill="#a2a2a2" d="M 207.5,51.5 C 213.5,51.5 219.5,51.5 225.5,51.5C 225.448,55.1981 225.114,58.8648 224.5,62.5C 218.833,62.5 213.167,62.5 207.5,62.5C 207.5,58.8333 207.5,55.1667 207.5,51.5 Z M 208.5,53.5 C 213.5,53.5 218.5,53.5 223.5,53.5C 223.5,54.5 223.5,55.5 223.5,56.5C 223.5,57.8333 223.5,59.1667 223.5,60.5C 218.5,60.5 213.5,60.5 208.5,60.5C 208.5,58.1667 208.5,55.8333 208.5,53.5 Z"/></g>
<g><path style="opacity:0.075" fill="#dfdfdf" d="M 208.5,53.5 C 213.64,52.5119 218.974,52.1786 224.5,52.5C 224.768,54.099 224.434,55.4324 223.5,56.5C 223.5,55.5 223.5,54.5 223.5,53.5C 218.5,53.5 213.5,53.5 208.5,53.5 Z"/></g>
<g><path style="opacity:0.157" fill="#b6b6b6" d="M 230.5,36.5 C 230.833,36.5 231.167,36.5 231.5,36.5C 231.665,47.5302 231.165,58.5302 230,69.5C 229.722,70.4158 229.222,71.0825 228.5,71.5C 229.608,59.8613 230.275,48.1946 230.5,36.5 Z"/></g>
<g><path style="opacity:1" fill="#cfcfcf" d="M 95.5,21.5 C 100.527,27.1937 105.86,32.5271 111.5,37.5C 111.229,39.3797 111.896,40.713 113.5,41.5C 114.209,42.404 115.209,42.7373 116.5,42.5C 116.473,44.1993 115.806,45.5326 114.5,46.5C 114.508,49.5448 114.841,52.5448 115.5,55.5C 115.259,57.8984 115.926,59.8984 117.5,61.5C 117.565,64.4282 118.232,67.0948 119.5,69.5C 119.116,73.4885 119.783,77.1552 121.5,80.5C 124.058,87.9466 125.725,95.6132 126.5,103.5C 126.12,105.698 126.787,107.365 128.5,108.5C 128.263,109.791 128.596,110.791 129.5,111.5C 156.5,112.167 183.5,112.833 210.5,113.5C 183.165,113.667 155.831,113.5 128.5,113C 127.009,110.506 125.509,108.006 124,105.5C 123.699,108.507 123.865,111.507 124.5,114.5C 122.882,111.112 121.882,107.446 121.5,103.5C 121.741,101.102 121.074,99.1016 119.5,97.5C 118.992,93.8026 118.326,90.1359 117.5,86.5C 117.59,83.8478 116.924,81.5145 115.5,79.5C 115.016,75.768 114.349,72.1013 113.5,68.5C 113.741,66.1016 113.074,64.1016 111.5,62.5C 111.324,59.2727 110.657,56.2727 109.5,53.5C 109.664,50.8127 109.497,48.146 109,45.5C 108.722,44.5842 108.222,43.9175 107.5,43.5C 104.317,37.6401 99.9838,32.6401 94.5,28.5C 94.1984,25.9407 94.5318,23.6074 95.5,21.5 Z"/></g>
<g><path style="opacity:0.599" fill="#666666" d="M 136.5,67.5 C 132.5,67.5 128.5,67.5 124.5,67.5C 124.5,68.5 124.5,69.5 124.5,70.5C 123.566,69.4324 123.232,68.099 123.5,66.5C 128.032,66.1818 132.366,66.5151 136.5,67.5 Z"/></g>
<g><path style="opacity:0.598" fill="#6c6c6c" d="M 207.5,67.5 C 212.64,66.5119 217.974,66.1786 223.5,66.5C 223.784,68.4147 223.451,70.0813 222.5,71.5C 222.5,70.5 222.5,69.5 222.5,68.5C 217.695,67.5128 212.695,67.1795 207.5,67.5 Z"/></g>
<g><path style="opacity:1" fill="#5a5a5a" d="M 111.5,62.5 C 113.074,64.1016 113.741,66.1016 113.5,68.5C 111.926,66.8984 111.259,64.8984 111.5,62.5 Z"/></g>
<g><path style="opacity:0.205" fill="#b3b3b3" d="M 136.5,67.5 C 137.821,71.2326 137.821,75.0659 136.5,79C 133.167,79.6667 129.833,79.6667 126.5,79C 125.518,76.2617 124.852,73.4284 124.5,70.5C 124.5,69.5 124.5,68.5 124.5,67.5C 128.5,67.5 132.5,67.5 136.5,67.5 Z M 125.5,69.5 C 126.657,72.2727 127.324,75.2727 127.5,78.5C 130.167,78.5 132.833,78.5 135.5,78.5C 135.5,75.1667 135.5,71.8333 135.5,68.5C 131.958,68.1872 128.625,68.5206 125.5,69.5 Z"/></g>
<g><path style="opacity:0.204" fill="#b1b1b1" d="M 207.5,67.5 C 212.695,67.1795 217.695,67.5128 222.5,68.5C 217.833,68.5 213.167,68.5 208.5,68.5C 208.5,71.8333 208.5,75.1667 208.5,78.5C 212.5,78.5 216.5,78.5 220.5,78.5C 220.833,78.5 221.167,78.5 221.5,78.5C 217.03,79.4861 212.363,79.8195 207.5,79.5C 207.5,75.5 207.5,71.5 207.5,67.5 Z"/></g>
<g><path style="opacity:0.69" fill="#595959" d="M 159.5,67.5 C 163.311,66.3547 167.311,66.1881 171.5,67C 172.822,71.2669 172.822,75.4336 171.5,79.5C 171.815,75.6286 171.482,71.9619 170.5,68.5C 167.038,67.5184 163.371,67.185 159.5,67.5 Z"/></g>
<g><path style="opacity:0.258" fill="#b0b0b0" d="M 194.5,68.5 C 196.948,67.5269 199.615,67.1936 202.5,67.5C 202.5,71.5 202.5,75.5 202.5,79.5C 199.615,79.8064 196.948,79.4731 194.5,78.5C 196.833,78.5 199.167,78.5 201.5,78.5C 201.5,75.1667 201.5,71.8333 201.5,68.5C 199.167,68.5 196.833,68.5 194.5,68.5 Z"/></g>
<g><path style="opacity:0.075" fill="#dfdfdf" d="M 177.5,67.5 C 181.167,67.5 184.833,67.5 188.5,67.5C 188.5,71.1667 188.5,74.8333 188.5,78.5C 188.167,78.5 187.833,78.5 187.5,78.5C 187.5,75.1667 187.5,71.8333 187.5,68.5C 184.5,68.5 181.5,68.5 178.5,68.5C 178.5,71.8333 178.5,75.1667 178.5,78.5C 177.518,75.0381 177.185,71.3714 177.5,67.5 Z M 187.5,78.5 C 184.5,78.5 181.5,78.5 178.5,78.5C 178.5,75.1667 178.5,71.8333 178.5,68.5C 181.5,68.5 184.5,68.5 187.5,68.5C 187.5,71.8333 187.5,75.1667 187.5,78.5 Z"/></g>
<g><path style="opacity:0.843" fill="#474747" d="M 188.5,67.5 C 184.833,67.5 181.167,67.5 177.5,67.5C 176.518,70.9619 176.185,74.6286 176.5,78.5C 175.517,74.7016 175.183,70.7016 175.5,66.5C 180.032,66.1818 184.366,66.5151 188.5,67.5 Z"/></g>
<g><path style="opacity:0.482" fill="#7a7a7a" d="M 202.5,67.5 C 199.615,67.1936 196.948,67.5269 194.5,68.5C 194.5,71.8333 194.5,75.1667 194.5,78.5C 193.517,74.7016 193.183,70.7016 193.5,66.5C 196.713,66.19 199.713,66.5233 202.5,67.5 Z"/></g>
<g><path style="opacity:0.22" fill="#a1a1a1" d="M 107.5,68.5 C 108.693,68.9704 109.36,69.9704 109.5,71.5C 109.997,73.8183 110.33,76.1516 110.5,78.5C 109.833,77.8333 109.167,77.1667 108.5,76.5C 107.908,73.8728 107.575,71.2062 107.5,68.5 Z"/></g>
<g><path style="opacity:0.263" fill="#d0d0d0" d="M 222.5,71.5 C 222.802,74.0593 222.468,76.3926 221.5,78.5C 221.167,78.5 220.833,78.5 220.5,78.5C 220.41,75.8478 221.076,73.5145 222.5,71.5 Z"/></g>
<g><path style="opacity:1" fill="#898989" d="M 119.5,69.5 C 120.525,72.9736 121.192,76.6403 121.5,80.5C 119.783,77.1552 119.116,73.4885 119.5,69.5 Z"/></g>
<g><path style="opacity:0.675" fill="#626262" d="M 228.5,71.5 C 228.5,72.8333 228.5,74.1667 228.5,75.5C 227.833,77.5 227.167,79.5 226.5,81.5C 226.336,78.8127 226.503,76.146 227,73.5C 227.278,72.5842 227.778,71.9175 228.5,71.5 Z"/></g>
<g><path style="opacity:0.483" fill="#828282" d="M 142.5,78.5 C 141.517,74.7016 141.183,70.7016 141.5,66.5C 145.833,66.5 150.167,66.5 154.5,66.5C 154.5,70.8333 154.5,75.1667 154.5,79.5C 150.298,79.8168 146.298,79.4834 142.5,78.5 Z M 153.5,68.5 C 153.5,71.8333 153.5,75.1667 153.5,78.5C 150.167,78.5 146.833,78.5 143.5,78.5C 143.5,75.1667 143.5,71.8333 143.5,68.5C 146.833,68.5 150.167,68.5 153.5,68.5 Z"/></g>
<g><path style="opacity:0.123" fill="#d5d5d5" d="M 153.5,68.5 C 150.167,68.5 146.833,68.5 143.5,68.5C 143.5,71.8333 143.5,75.1667 143.5,78.5C 143.167,78.5 142.833,78.5 142.5,78.5C 142.5,74.8333 142.5,71.1667 142.5,67.5C 146.371,67.185 150.038,67.5184 153.5,68.5 Z"/></g>
<g><path style="opacity:0.497" fill="#9f9f9f" d="M 159.5,67.5 C 163.371,67.185 167.038,67.5184 170.5,68.5C 171.482,71.9619 171.815,75.6286 171.5,79.5C 167.5,79.5 163.5,79.5 159.5,79.5C 159.5,75.5 159.5,71.5 159.5,67.5 Z M 170.5,68.5 C 167.167,68.5 163.833,68.5 160.5,68.5C 160.5,71.8333 160.5,75.1667 160.5,78.5C 163.833,78.5 167.167,78.5 170.5,78.5C 170.5,75.1667 170.5,71.8333 170.5,68.5 Z"/></g>
<g><path style="opacity:0.497" fill="#8f8f8f" d="M 177.5,67.5 C 177.185,71.3714 177.518,75.0381 178.5,78.5C 181.5,78.5 184.5,78.5 187.5,78.5C 187.833,78.5 188.167,78.5 188.5,78.5C 184.5,79.8333 180.5,79.8333 176.5,78.5C 176.185,74.6286 176.518,70.9619 177.5,67.5 Z"/></g>
<g><path style="opacity:1" fill="#575757" d="M 115.5,79.5 C 116.924,81.5145 117.59,83.8478 117.5,86.5C 116.076,84.4855 115.41,82.1522 115.5,79.5 Z"/></g>
<g><path style="opacity:0.076" fill="#e5e5e5" d="M 135.5,84.5 C 135.833,84.5 136.167,84.5 136.5,84.5C 136.5,88.1667 136.5,91.8333 136.5,95.5C 134.585,95.7845 132.919,95.4511 131.5,94.5C 132.833,94.5 134.167,94.5 135.5,94.5C 135.5,91.1667 135.5,87.8333 135.5,84.5 Z"/></g>
<g><path style="opacity:0.302" fill="#bfbfbf" d="M 108.5,76.5 C 109.167,77.1667 109.833,77.8333 110.5,78.5C 113.259,90.4799 115.926,102.48 118.5,114.5C 118.5,115.167 118.5,115.833 118.5,116.5C 114.33,103.569 110.996,90.2356 108.5,76.5 Z"/></g>
<g><path style="opacity:0.486" fill="#a0a0a0" d="M 136.5,84.5 C 137.483,88.2984 137.817,92.2984 137.5,96.5C 134.881,96.7683 132.381,96.435 130,95.5C 129.39,92.1727 128.89,88.8394 128.5,85.5C 129.117,85.6107 129.617,85.944 130,86.5C 130.395,89.2066 130.895,91.8733 131.5,94.5C 132.919,95.4511 134.585,95.7845 136.5,95.5C 136.5,91.8333 136.5,88.1667 136.5,84.5 Z"/></g>
<g><path style="opacity:0.052" fill="#e9e9e9" d="M 177.5,84.5 C 177.833,84.5 178.167,84.5 178.5,84.5C 178.5,87.8333 178.5,91.1667 178.5,94.5C 181.5,94.5 184.5,94.5 187.5,94.5C 187.5,91.1667 187.5,87.8333 187.5,84.5C 188.482,87.9619 188.815,91.6286 188.5,95.5C 184.833,95.5 181.167,95.5 177.5,95.5C 177.5,91.8333 177.5,88.1667 177.5,84.5 Z M 178.5,84.5 C 181.5,84.5 184.5,84.5 187.5,84.5C 187.5,87.8333 187.5,91.1667 187.5,94.5C 184.5,94.5 181.5,94.5 178.5,94.5C 178.5,91.1667 178.5,87.8333 178.5,84.5 Z"/></g>
<g><path style="opacity:0.278" fill="#9f9f9f" d="M 142.5,84.5 C 142.5,88.1667 142.5,91.8333 142.5,95.5C 146.371,95.815 150.038,95.4816 153.5,94.5C 153.747,91.0613 153.414,87.728 152.5,84.5C 154.423,88.0293 155.089,92.0293 154.5,96.5C 150.167,96.5 145.833,96.5 141.5,96.5C 141.183,92.2984 141.517,88.2984 142.5,84.5 Z M 144.5,84.5 C 147.167,84.5 149.833,84.5 152.5,84.5C 153.414,87.728 153.747,91.0613 153.5,94.5C 150.167,94.5 146.833,94.5 143.5,94.5C 143.253,91.0613 143.586,87.728 144.5,84.5 Z"/></g>
<g><path style="opacity:0.052" fill="#e7e7e7" d="M 142.5,84.5 C 143.167,84.5 143.833,84.5 144.5,84.5C 143.586,87.728 143.253,91.0613 143.5,94.5C 146.833,94.5 150.167,94.5 153.5,94.5C 150.038,95.4816 146.371,95.815 142.5,95.5C 142.5,91.8333 142.5,88.1667 142.5,84.5 Z"/></g>
<g><path style="opacity:0.278" fill="#bebebe" d="M 160.5,84.5 C 160.5,87.8333 160.5,91.1667 160.5,94.5C 163.833,94.5 167.167,94.5 170.5,94.5C 170.5,91.1667 170.5,87.8333 170.5,84.5C 171.483,88.2984 171.817,92.2984 171.5,96.5C 167.5,96.5 163.5,96.5 159.5,96.5C 159.183,92.2984 159.517,88.2984 160.5,84.5 Z M 160.5,84.5 C 163.833,84.5 167.167,84.5 170.5,84.5C 170.5,87.8333 170.5,91.1667 170.5,94.5C 167.167,94.5 163.833,94.5 160.5,94.5C 160.5,91.1667 160.5,87.8333 160.5,84.5 Z"/></g>
<g><path style="opacity:0.282" fill="#aeaeae" d="M 177.5,84.5 C 177.5,88.1667 177.5,91.8333 177.5,95.5C 181.167,95.5 184.833,95.5 188.5,95.5C 184.702,96.4834 180.702,96.8168 176.5,96.5C 176.183,92.2984 176.517,88.2984 177.5,84.5 Z"/></g>
<g><path style="opacity:0.278" fill="#afafaf" d="M 194.5,84.5 C 194.5,87.8333 194.5,91.1667 194.5,94.5C 196.833,94.5 199.167,94.5 201.5,94.5C 201.5,91.1667 201.5,87.8333 201.5,84.5C 202.483,88.2984 202.817,92.2984 202.5,96.5C 199.5,96.5 196.5,96.5 193.5,96.5C 193.183,92.2984 193.517,88.2984 194.5,84.5 Z M 194.5,84.5 C 196.833,84.5 199.167,84.5 201.5,84.5C 201.5,87.8333 201.5,91.1667 201.5,94.5C 199.167,94.5 196.833,94.5 194.5,94.5C 194.5,91.1667 194.5,87.8333 194.5,84.5 Z"/></g>
<g><path style="opacity:0.28" fill="#bfbfbf" d="M 208.5,84.5 C 208.5,87.8333 208.5,91.1667 208.5,94.5C 212.167,94.5 215.833,94.5 219.5,94.5C 219.5,91.1667 219.5,87.8333 219.5,84.5C 220.376,84.3691 221.043,84.7025 221.5,85.5C 220.574,89.0938 220.241,92.7604 220.5,96.5C 216.167,96.5 211.833,96.5 207.5,96.5C 207.183,92.2984 207.517,88.2984 208.5,84.5 Z M 208.5,84.5 C 212.167,84.5 215.833,84.5 219.5,84.5C 219.5,87.8333 219.5,91.1667 219.5,94.5C 215.833,94.5 212.167,94.5 208.5,94.5C 208.5,91.1667 208.5,87.8333 208.5,84.5 Z"/></g>
<g><path style="opacity:0.668" fill="#595959" d="M 225.5,95.5 C 225.739,97.4672 225.406,99.3005 224.5,101C 193.835,101.5 163.168,101.667 132.5,101.5C 162.662,100.502 192.995,100.169 223.5,100.5C 223.12,98.302 223.787,96.6354 225.5,95.5 Z"/></g>
<g><path style="opacity:1" fill="#575757" d="M 119.5,97.5 C 121.074,99.1016 121.741,101.102 121.5,103.5C 119.926,101.898 119.259,99.8984 119.5,97.5 Z"/></g>
<g><path style="opacity:0.191" fill="#b5b5b5" d="M 228.5,75.5 C 227.778,84.4953 227.112,93.4953 226.5,102.5C 195.493,102.167 164.493,102.5 133.5,103.5C 133.709,104.086 134.043,104.586 134.5,105C 160.833,105.333 187.167,105.667 213.5,106C 218.588,107.592 222.255,110.759 224.5,115.5C 221.665,112.835 218.665,110.335 215.5,108C 187.835,107.5 160.169,107.333 132.5,107.5C 132.5,105.5 132.5,103.5 132.5,101.5C 163.168,101.667 193.835,101.5 224.5,101C 225.406,99.3005 225.739,97.4672 225.5,95.5C 225.669,90.8189 226.002,86.1522 226.5,81.5C 227.167,79.5 227.833,77.5 228.5,75.5 Z"/></g>
<g><path style="opacity:1" fill="#717171" d="M 126.5,103.5 C 128.213,104.635 128.88,106.302 128.5,108.5C 126.787,107.365 126.12,105.698 126.5,103.5 Z"/></g>
<g><path style="opacity:0.522" fill="#7d7d7d" d="M 129.5,111.5 C 157.169,111.333 184.835,111.5 212.5,112C 213.416,112.278 214.082,112.778 214.5,113.5C 213.167,113.5 211.833,113.5 210.5,113.5C 183.5,112.833 156.5,112.167 129.5,111.5 Z"/></g>
<g><path style="opacity:0.735" fill="#535353" d="M 118.5,114.5 C 119.117,114.611 119.617,114.944 120,115.5C 120.495,117.473 120.662,119.473 120.5,121.5C 150.005,121.169 179.338,121.502 208.5,122.5C 178.833,122.5 149.167,122.5 119.5,122.5C 118.659,120.621 118.325,118.621 118.5,116.5C 118.5,115.833 118.5,115.167 118.5,114.5 Z"/></g>
<g><path style="opacity:0.149" fill="#c4c4c4" d="M 119.5,122.5 C 149.167,122.5 178.833,122.5 208.5,122.5C 209.649,122.791 210.316,123.624 210.5,125C 210.472,126.07 210.139,126.903 209.5,127.5C 179.833,127.5 150.167,127.5 120.5,127.5C 120.5,127.167 120.5,126.833 120.5,126.5C 150.167,126.5 179.833,126.5 209.5,126.5C 209.5,125.5 209.5,124.5 209.5,123.5C 179.329,123.831 149.329,123.498 119.5,122.5 Z"/></g>
<g><path style="opacity:1" fill="#7e7e7e" d="M 215.5,120.5 C 216.158,121.793 216.492,123.293 216.5,125C 216.431,126.986 215.765,128.486 214.5,129.5C 215.403,126.609 215.736,123.609 215.5,120.5 Z"/></g>
<g><path style="opacity:0.113" fill="#dddddd" d="M 120.5,126.5 C 120.5,126.833 120.5,127.167 120.5,127.5C 119.167,132.5 119.167,137.5 120.5,142.5C 120.5,142.833 120.5,143.167 120.5,143.5C 119.186,141.085 118.519,138.252 118.5,135C 118.519,131.748 119.186,128.915 120.5,126.5 Z"/></g>
<g><path style="opacity:1" fill="#a9a9a9" d="M 218.5,117.5 C 219.458,117.953 220.292,118.619 221,119.5C 221.667,122.833 221.667,126.167 221,129.5C 219.13,131.405 217.63,133.572 216.5,136C 215.207,136.49 213.873,136.657 212.5,136.5C 213.531,135.751 214.698,135.085 216,134.5C 216.667,132.5 217.333,130.5 218,128.5C 219.016,129.634 219.683,129.301 220,127.5C 220.843,123.897 220.343,120.564 218.5,117.5 Z"/></g>
<g><path style="opacity:0.55" fill="#5c5c5c" d="M 120.5,127.5 C 150.167,127.5 179.833,127.5 209.5,127.5C 180.005,128.498 150.338,128.831 120.5,128.5C 120.5,133.167 120.5,137.833 120.5,142.5C 119.167,137.5 119.167,132.5 120.5,127.5 Z"/></g>
<g><path style="opacity:1" fill="#434343" d="M 214.5,129.5 C 213.7,131.741 212.034,132.741 209.5,132.5C 181.5,132.5 153.5,132.5 125.5,132.5C 153.997,131.668 182.664,131.168 211.5,131C 212.527,130.487 213.527,129.987 214.5,129.5 Z"/></g>
<g><path style="opacity:1" fill="#a8a8a8" d="M 125.5,132.5 C 153.5,132.5 181.5,132.5 209.5,132.5C 181.672,133.498 153.672,133.831 125.5,133.5C 125.5,134.833 125.5,136.167 125.5,137.5C 124.167,135.833 124.167,134.167 125.5,132.5 Z"/></g>
<g><path style="opacity:1" fill="#d3d3d3" d="M 210.5,113.5 C 211.833,113.5 213.167,113.5 214.5,113.5C 215.263,114.268 216.263,114.768 217.5,115C 218.252,115.671 218.586,116.504 218.5,117.5C 220.343,120.564 220.843,123.897 220,127.5C 219.683,129.301 219.016,129.634 218,128.5C 217.333,130.5 216.667,132.5 216,134.5C 214.698,135.085 213.531,135.751 212.5,136.5C 183.671,137.498 154.671,137.831 125.5,137.5C 125.5,136.167 125.5,134.833 125.5,133.5C 153.672,133.831 181.672,133.498 209.5,132.5C 212.034,132.741 213.7,131.741 214.5,129.5C 215.765,128.486 216.431,126.986 216.5,125C 216.492,123.293 216.158,121.793 215.5,120.5C 214.317,119.496 212.984,118.662 211.5,118C 182.502,117.5 153.502,117.333 124.5,117.5C 124.5,116.5 124.5,115.5 124.5,114.5C 123.865,111.507 123.699,108.507 124,105.5C 125.509,108.006 127.009,110.506 128.5,113C 155.831,113.5 183.165,113.667 210.5,113.5 Z"/></g>
<g><path style="opacity:0.106" fill="#c9c9c9" d="M 224.5,115.5 C 225.75,115.577 226.583,116.244 227,117.5C 228.63,125.155 227.296,132.155 223,138.5C 222.329,139.252 221.496,139.586 220.5,139.5C 222.322,135.855 224.156,132.189 226,128.5C 226.85,123.979 226.35,119.645 224.5,115.5 Z"/></g>
<g><path style="opacity:0.259" fill="#d2d2d2" d="M 220.5,139.5 C 218.469,141.755 215.802,143.088 212.5,143.5C 212.833,142.833 213.167,142.167 213.5,141.5C 215.894,140.985 218.228,140.319 220.5,139.5 Z"/></g>
<g><path style="opacity:0.45" fill="#919190" d="M 120.5,143.5 C 120.5,143.167 120.5,142.833 120.5,142.5C 126.167,142.5 131.833,142.5 137.5,142.5C 137.138,145.887 135.138,147.553 131.5,147.5C 131.833,146.833 132.167,146.167 132.5,145.5C 133.043,145.44 133.376,145.107 133.5,144.5C 129.217,143.508 124.884,143.174 120.5,143.5 Z"/></g>
<g><path style="opacity:0.443" fill="#8e8e8e" d="M 197.5,147.5 C 197.833,146.833 198.167,146.167 198.5,145.5C 199.043,145.44 199.376,145.107 199.5,144.5C 181.176,143.334 162.842,143.167 144.5,144C 145.044,144.717 145.711,145.217 146.5,145.5C 146.833,146.167 147.167,146.833 147.5,147.5C 143.862,147.553 141.862,145.887 141.5,142.5C 161.833,142.5 182.167,142.5 202.5,142.5C 202.001,145.264 200.335,146.931 197.5,147.5 Z"/></g>
<g><path style="opacity:0.012" fill="#dedede" d="M 146.5,145.5 C 148.833,145.833 150.167,147.167 150.5,149.5C 149.5,148.833 148.5,148.167 147.5,147.5C 147.167,146.833 146.833,146.167 146.5,145.5 Z"/></g>
<g><path style="opacity:0.063" fill="#b1b1b0" d="M 213.5,141.5 C 213.167,142.167 212.833,142.833 212.5,143.5C 211.761,143.369 211.094,143.536 210.5,144C 212.249,145.292 214.082,146.458 216,147.5C 216.791,148.745 217.291,150.078 217.5,151.5C 214.413,148.777 211.079,146.277 207.5,144C 207.645,143.228 207.978,142.561 208.5,142C 210.134,141.506 211.801,141.34 213.5,141.5 Z"/></g>
<g><path style="opacity:0.086" fill="#d7d7d7" d="M 198.5,145.5 C 198.167,146.167 197.833,146.833 197.5,147.5C 196.167,148.167 195.167,149.167 194.5,150.5C 193.833,150.833 193.167,151.167 192.5,151.5C 193.167,148.167 195.167,146.167 198.5,145.5 Z"/></g>
<g><path style="opacity:0.098" fill="#dbdbd9" d="M 132.5,145.5 C 132.167,146.167 131.833,146.833 131.5,147.5C 130.026,148.436 129.026,149.77 128.5,151.5C 127.833,151.833 127.167,152.167 126.5,152.5C 127.092,148.911 129.092,146.578 132.5,145.5 Z"/></g>
<g><path style="opacity:0.047" fill="#e8e8e6" d="M 192.5,151.5 C 192.231,155.931 192.564,160.265 193.5,164.5C 192.503,164.53 191.836,164.03 191.5,163C 189.918,158.86 190.251,155.026 192.5,151.5 Z"/></g>
<g><path style="opacity:0.861" fill="#4e4f4c" d="M 194.5,150.5 C 193.167,155.167 193.167,159.833 194.5,164.5C 194.167,164.5 193.833,164.5 193.5,164.5C 192.564,160.265 192.231,155.931 192.5,151.5C 193.167,151.167 193.833,150.833 194.5,150.5 Z"/></g>
<g><path style="opacity:1" fill="#79787e" d="M 207.5,150.5 C 214.101,153.26 215.101,157.426 210.5,163C 201.085,167.278 196.918,164.112 198,153.5C 199.11,151.963 200.61,151.297 202.5,151.5C 202.5,153.5 202.5,155.5 202.5,157.5C 204.167,157.5 205.833,157.5 207.5,157.5C 207.5,155.167 207.5,152.833 207.5,150.5 Z"/></g>
<g><path style="opacity:0.304" fill="#cdcdcc" d="M 150.5,149.5 C 151.497,149.47 152.164,149.97 152.5,151C 155.873,162.682 151.706,169.515 140,171.5C 138.167,171.333 136.333,171.167 134.5,171C 133.944,170.617 133.611,170.117 133.5,169.5C 136.969,170.7 140.302,170.7 143.5,169.5C 152.186,165.11 154.519,158.444 150.5,149.5 Z"/></g>
<g><path style="opacity:0.602" fill="#919191" d="M 128.5,151.5 C 127.167,155.5 127.167,159.5 128.5,163.5C 127.833,163.167 127.167,162.833 126.5,162.5C 125.167,159.167 125.167,155.833 126.5,152.5C 127.167,152.167 127.833,151.833 128.5,151.5 Z"/></g>
<g><path style="opacity:1" fill="#77767b" d="M 134.5,150.5 C 135.5,150.5 136.5,150.5 137.5,150.5C 137.5,152.833 137.5,155.167 137.5,157.5C 138.833,157.5 140.167,157.5 141.5,157.5C 141.5,155.167 141.5,152.833 141.5,150.5C 146.655,151.797 148.488,155.13 147,160.5C 142.592,165.276 137.925,165.609 133,161.5C 132.013,157.525 132.513,153.859 134.5,150.5 Z"/></g>
<g><path style="opacity:0.094" fill="#d1d1ce" d="M 217.5,153.5 C 218.748,154.334 219.415,155.667 219.5,157.5C 219.333,158.833 219.167,160.167 219,161.5C 218.617,162.056 218.117,162.389 217.5,162.5C 217.5,159.5 217.5,156.5 217.5,153.5 Z"/></g>
<g><path style="opacity:0.071" fill="#e0e0df" d="M 126.5,162.5 C 127.167,162.833 127.833,163.167 128.5,163.5C 129.167,166.167 130.833,167.833 133.5,168.5C 133.5,168.833 133.5,169.167 133.5,169.5C 129.537,168.87 127.204,166.537 126.5,162.5 Z"/></g>
<g><path style="opacity:0.071" fill="#d0d0d1" d="M 217.5,162.5 C 217.528,164.582 216.861,166.416 215.5,168C 208.5,172.667 201.5,172.667 194.5,168C 193.663,166.989 193.33,165.822 193.5,164.5C 193.833,164.5 194.167,164.5 194.5,164.5C 196.05,166.622 198.05,168.289 200.5,169.5C 201.622,170.156 202.955,170.489 204.5,170.5C 206.883,170.639 208.883,169.972 210.5,168.5C 213.255,166.99 215.588,164.99 217.5,162.5 Z"/></g>
<g><path style="opacity:0.78" fill="#4b4b4b" d="M 133.5,169.5 C 133.5,169.167 133.5,168.833 133.5,168.5C 136.807,169.051 140.14,169.384 143.5,169.5C 140.302,170.7 136.969,170.7 133.5,169.5 Z"/></g>
<g><path style="opacity:0.549" fill="#525252" d="M 210.5,168.5 C 208.883,169.972 206.883,170.639 204.5,170.5C 202.955,170.489 201.622,170.156 200.5,169.5C 203.881,169.54 207.214,169.207 210.5,168.5 Z"/></g>
</svg>
